<svg width="89" height="129" viewBox="0 0 89 129" fill="none" xmlns="http://www.w3.org/2000/svg">
<path opacity="0.15" d="M44.8791 128.661C60.1521 128.661 72.5332 124.292 72.5332 118.901C72.5332 113.511 60.1521 109.142 44.8791 109.142C29.6061 109.142 17.2249 113.511 17.2249 118.901C17.2249 124.292 29.6061 128.661 44.8791 128.661Z" fill="#444956"/>
<path d="M82.559 77.7572C76.1463 93.5169 65.3139 107.086 51.3665 116.831C51.1036 117.021 50.8347 117.204 50.5658 117.381C48.8925 118.436 46.9549 118.995 44.977 118.995C42.999 118.995 41.0614 118.436 39.3882 117.381C39.1193 117.204 38.8504 117.02 38.5874 116.831C27.9406 109.406 19.0696 99.7155 12.611 88.456C6.15239 77.1964 2.26635 64.6468 1.23178 51.7077C7.98062 59.3079 16.1111 65.5577 25.1914 70.125C36.4708 76.0602 49.1118 78.9271 61.8481 78.4384C69.4995 78.0704 77.0387 76.4486 84.1646 73.6376L82.559 77.7572Z" fill="#32C192"/>
<path d="M89 44.0279V44.6389C89.0066 51.8469 88.1278 59.0284 86.3831 66.0221C72.616 68.0138 58.608 67.6064 44.9799 64.818C48.4334 64.8189 51.7666 63.5499 54.3451 61.2525C56.9236 58.9551 58.5672 55.7898 58.9632 52.3591C59.3591 48.9284 58.4797 45.4719 56.4923 42.6475C54.5049 39.8232 51.5483 37.8283 48.1854 37.0425C44.8225 36.2568 41.2881 36.7351 38.255 38.3864C35.2219 40.0376 32.9019 42.7466 31.7367 45.9976C30.5714 49.2485 30.6423 52.8145 31.9358 56.0166C33.2293 59.2186 35.6552 61.8332 38.7515 63.3627C25.2279 59.8187 12.4353 53.9171 0.961858 45.9291C0.955926 45.501 0.949005 45.067 0.949005 44.6389V44.0279C0.949005 43.851 0.949024 43.6789 0.955944 43.502C0.961876 43.153 0.967772 42.8099 0.980624 42.4619C0.977514 42.429 0.977514 42.3959 0.980624 42.3631C1.39052 31.5287 5.78364 21.2265 13.3183 13.4303C20.8529 5.634 30.9992 0.891943 41.8132 0.112589C52.6273 -0.666765 63.3487 2.57139 71.9234 9.20667C80.4981 15.842 86.323 25.4077 88.2822 36.0714C88.6654 38.149 88.8967 40.2518 88.9743 42.3631C88.9776 42.3959 88.9776 42.4291 88.9743 42.4619C88.9871 42.8109 88.9931 43.154 88.999 43.502C89 43.6789 89 43.85 89 44.0279Z" fill="#2196F3"/>
<path d="M88.2783 36.0724C62.0541 35.8917 36.6247 27.0496 15.9456 10.9214C21.7982 5.79087 28.906 2.30319 36.5451 0.813718C44.1842 -0.675753 52.0816 -0.113811 59.4329 2.44231C66.7841 4.99843 73.3265 9.45738 78.3936 15.3649C83.4607 21.2725 86.8714 28.4176 88.2783 36.0724V36.0724Z" fill="#4DABF6"/>
</svg>