<svg xmlns="http://www.w3.org/2000/svg" width="528.754" height="130.141" viewBox="0 0 528.754 130.141">
  <g id="Group_197" data-name="Group 197" transform="translate(-486.246 -414.2)">
    <ellipse id="Ellipse_16" data-name="Ellipse 16" cx="27.972" cy="9.872" rx="27.972" ry="9.872" transform="translate(696.658 524.596)" fill="#444956" opacity="0.15"/>
    <g id="Group_57" data-name="Group 57" transform="translate(680.191 414.2)">
      <g id="Group_56" data-name="Group 56" transform="translate(0)">
        <g id="Group_55" data-name="Group 55" transform="translate(0.285 52.302)">
          <path id="Path_20" data-name="Path 20" d="M917.3,534.47a89.249,89.249,0,0,1-31.551,39.523c-.266.192-.538.377-.81.556a10.6,10.6,0,0,1-11.306,0c-.272-.179-.544-.365-.81-.556a88.954,88.954,0,0,1-37.785-65.872,81.216,81.216,0,0,0,24.235,18.629,73.567,73.567,0,0,0,37.078,8.409,70.78,70.78,0,0,0,22.573-4.856Z" transform="translate(-835.033 -508.121)" fill="#fff"/>
        </g>
        <path id="Path_21" data-name="Path 21" d="M923.589,458.734v.618a89.017,89.017,0,0,1-2.647,21.629,121.87,121.87,0,0,1-41.879-1.218,14.234,14.234,0,1,0-6.3-1.472,120.249,120.249,0,0,1-38.224-17.634c-.006-.433-.013-.872-.013-1.305v-.618c0-.179,0-.353.007-.532.006-.353.012-.7.025-1.052a.531.531,0,0,1,0-.1,44.535,44.535,0,0,1,88.305-6.364,43.977,43.977,0,0,1,.7,6.364.488.488,0,0,1,0,.1c.013.353.019.7.025,1.052C923.589,458.381,923.589,458.554,923.589,458.734Z" transform="translate(-834.522 -414.2)" fill="#eee"/>
        <path id="Path_22" data-name="Path 22" d="M934.932,450.687a120.314,120.314,0,0,1-73.164-25.44,44.538,44.538,0,0,1,73.164,25.44Z" transform="translate(-846.595 -414.2)" fill="#fff"/>
      </g>
    </g>
    <g id="Group_58" data-name="Group 58" transform="translate(486.246 445.396)">
      <path id="Path_23" data-name="Path 23" d="M528.64,554.312q-18.3,0-30.348-12.1t-12.046-29.942q0-17.836,12.046-29.942t30.348-12.1a40.969,40.969,0,0,1,20.327,5.212A37.9,37.9,0,0,1,563.5,489.563l-11.583,6.718a23.928,23.928,0,0,0-9.44-9.556,27.459,27.459,0,0,0-13.841-3.533q-12.976,0-21.024,8.224t-8.05,20.849q0,12.626,8.05,20.849t21.024,8.224a27.751,27.751,0,0,0,13.9-3.533,23.032,23.032,0,0,0,9.382-9.556l11.583,6.6a37.469,37.469,0,0,1-14.421,14.189A40.82,40.82,0,0,1,528.64,554.312Z" transform="translate(-486.246 -470.22)" fill="#fff"/>
      <path id="Path_24" data-name="Path 24" d="M654.814,483.83a7.992,7.992,0,0,1-13.609-5.618,7.771,7.771,0,0,1,2.316-5.618,7.971,7.971,0,0,1,11.352,0,7.783,7.783,0,0,1,2.317,5.618A7.681,7.681,0,0,1,654.814,483.83Zm-11.872,68.976V494.892h12.51v57.915Z" transform="translate(-554.913 -470.22)" fill="#fff"/>
      <path id="Path_25" data-name="Path 25" d="M720.955,513.666H706.592v27.8q0,3.591,1.622,5.154a7.266,7.266,0,0,0,4.807,1.737,78.917,78.917,0,0,0,7.934-.058v11.235q-14.363,1.737-20.618-2.49t-6.255-15.579v-27.8H683.426V501.62h10.656v-12.51l12.51-3.707V501.62h14.363Z" transform="translate(-573.622 -476.948)" fill="#fff"/>
      <path id="Path_26" data-name="Path 26" d="M781.691,483.83a7.992,7.992,0,0,1-13.609-5.618,7.772,7.772,0,0,1,2.316-5.618,7.97,7.97,0,0,1,11.351,0,7.781,7.781,0,0,1,2.317,5.618A7.681,7.681,0,0,1,781.691,483.83Zm-11.873,68.976V494.892h12.51v57.915Z" transform="translate(-611.136 -470.22)" fill="#fff"/>
      <path id="Path_27" data-name="Path 27" d="M1040.946,557.92h28.147v11.815h-45.174v-8.34l27.1-37.761h-25.945V511.82h42.856v8.34Z" transform="translate(-724.504 -488.654)" fill="#fff"/>
      <path id="Path_28" data-name="Path 28" d="M1127.071,544.907a15.9,15.9,0,0,0,6.37,10.135,20.468,20.468,0,0,0,12.163,3.533q9.96,0,14.942-7.182l10.309,6.024q-8.574,12.626-25.367,12.625-14.133,0-22.818-8.629t-8.687-21.834q0-12.971,8.571-21.718t22.008-8.745q12.74,0,20.907,8.919a30.928,30.928,0,0,1,8.166,21.66,38.922,38.922,0,0,1-.463,5.212Zm-.116-10.193h34.053q-1.276-7.064-5.849-10.656a16.858,16.858,0,0,0-10.714-3.591,17.592,17.592,0,0,0-11.583,3.822A17.237,17.237,0,0,0,1126.955,534.714Z" transform="translate(-764.414 -487.456)" fill="#fff"/>
      <path id="Path_29" data-name="Path 29" d="M1271.321,509.116q9.961,0,16.1,6.371t6.14,17.49v35.56h-12.51V534.251q0-6.485-3.475-9.961t-9.5-3.475a14.3,14.3,0,0,0-10.657,4.112q-4.055,4.113-4.053,12.567v31.042h-12.51V510.622h12.51v7.413Q1259.042,509.116,1271.321,509.116Z" transform="translate(-820.636 -487.456)" fill="#fff"/>
      <path id="Path_30" data-name="Path 30" d="M1367.82,526.606q0,2.9,3.185,4.575a37.169,37.169,0,0,0,7.76,2.9q4.574,1.216,9.208,2.837a17.421,17.421,0,0,1,7.818,5.5,14.924,14.924,0,0,1,3.185,9.788,15.373,15.373,0,0,1-6.428,13.088q-6.428,4.751-16.158,4.75a28.652,28.652,0,0,1-14.71-3.591,21.042,21.042,0,0,1-8.919-9.961l10.772-6.255q3.01,8.34,12.857,8.34t9.845-6.486q0-2.78-3.185-4.517a35.135,35.135,0,0,0-7.761-2.954q-4.577-1.217-9.208-2.838a17.738,17.738,0,0,1-7.818-5.386,14.273,14.273,0,0,1-3.185-9.556,15.652,15.652,0,0,1,6.081-12.857q6.081-4.865,15.116-4.865a25.5,25.5,0,0,1,12.8,3.185,21.7,21.7,0,0,1,8.629,8.861l-10.54,5.907q-3.014-6.6-10.888-6.6a10.918,10.918,0,0,0-6.023,1.564A5.1,5.1,0,0,0,1367.82,526.606Z" transform="translate(-870.224 -487.456)" fill="#fff"/>
    </g>
  </g>
</svg>
